<svg id="visual" viewBox="0 0 1920 1080" width="1920" height="1080" xmlns="http://www.w3.org/2000/svg" xmlns:xlink="http://www.w3.org/1999/xlink" version="1.1"><rect x="0" y="0" width="1920" height="1080" fill="#001220"></rect><path d="M0 266L40 294.2C80 322.3 160 378.7 240 367.5C320 356.3 400 277.7 480 270C560 262.3 640 325.7 720 341.2C800 356.7 880 324.3 960 294.3C1040 264.3 1120 236.7 1200 235.3C1280 234 1360 259 1440 286.5C1520 314 1600 344 1680 347.5C1760 351 1840 328 1880 316.5L1920 305L1920 1081L1880 1081C1840 1081 1760 1081 1680 1081C1600 1081 1520 1081 1440 1081C1360 1081 1280 1081 1200 1081C1120 1081 1040 1081 960 1081C880 1081 800 1081 720 1081C640 1081 560 1081 480 1081C400 1081 320 1081 240 1081C160 1081 80 1081 40 1081L0 1081Z" fill="#fa7268"></path><path d="M0 392L40 407C80 422 160 452 240 462.7C320 473.3 400 464.7 480 442.8C560 421 640 386 720 386.7C800 387.3 880 423.7 960 415.8C1040 408 1120 356 1200 346.2C1280 336.3 1360 368.7 1440 373.5C1520 378.3 1600 355.7 1680 356C1760 356.3 1840 379.7 1880 391.3L1920 403L1920 1081L1880 1081C1840 1081 1760 1081 1680 1081C1600 1081 1520 1081 1440 1081C1360 1081 1280 1081 1200 1081C1120 1081 1040 1081 960 1081C880 1081 800 1081 720 1081C640 1081 560 1081 480 1081C400 1081 320 1081 240 1081C160 1081 80 1081 40 1081L0 1081Z" fill="#f46767"></path><path d="M0 480L40 478.8C80 477.7 160 475.3 240 479.7C320 484 400 495 480 483.2C560 471.3 640 436.7 720 443.2C800 449.7 880 497.3 960 509.5C1040 521.7 1120 498.3 1200 498.8C1280 499.3 1360 523.7 1440 534.2C1520 544.7 1600 541.3 1680 537.2C1760 533 1840 528 1880 525.5L1920 523L1920 1081L1880 1081C1840 1081 1760 1081 1680 1081C1600 1081 1520 1081 1440 1081C1360 1081 1280 1081 1200 1081C1120 1081 1040 1081 960 1081C880 1081 800 1081 720 1081C640 1081 560 1081 480 1081C400 1081 320 1081 240 1081C160 1081 80 1081 40 1081L0 1081Z" fill="#ee5c67"></path><path d="M0 621L40 629.5C80 638 160 655 240 667.2C320 679.3 400 686.7 480 671.7C560 656.7 640 619.3 720 600.5C800 581.7 880 581.3 960 581.3C1040 581.3 1120 581.7 1200 591C1280 600.3 1360 618.7 1440 605.7C1520 592.7 1600 548.3 1680 548.3C1760 548.3 1840 592.7 1880 614.8L1920 637L1920 1081L1880 1081C1840 1081 1760 1081 1680 1081C1600 1081 1520 1081 1440 1081C1360 1081 1280 1081 1200 1081C1120 1081 1040 1081 960 1081C880 1081 800 1081 720 1081C640 1081 560 1081 480 1081C400 1081 320 1081 240 1081C160 1081 80 1081 40 1081L0 1081Z" fill="#e75167"></path><path d="M0 693L40 684.3C80 675.7 160 658.3 240 668.2C320 678 400 715 480 736.8C560 758.7 640 765.3 720 768.3C800 771.3 880 770.7 960 749.5C1040 728.3 1120 686.7 1200 671.8C1280 657 1360 669 1440 667.3C1520 665.7 1600 650.3 1680 659.7C1760 669 1840 703 1880 720L1920 737L1920 1081L1880 1081C1840 1081 1760 1081 1680 1081C1600 1081 1520 1081 1440 1081C1360 1081 1280 1081 1200 1081C1120 1081 1040 1081 960 1081C880 1081 800 1081 720 1081C640 1081 560 1081 480 1081C400 1081 320 1081 240 1081C160 1081 80 1081 40 1081L0 1081Z" fill="#df4667"></path><path d="M0 721L40 728.8C80 736.7 160 752.3 240 759.3C320 766.3 400 764.7 480 776.8C560 789 640 815 720 828.3C800 841.7 880 842.3 960 829.5C1040 816.7 1120 790.3 1200 781.2C1280 772 1360 780 1440 774.7C1520 769.3 1600 750.7 1680 740.7C1760 730.7 1840 729.3 1880 728.7L1920 728L1920 1081L1880 1081C1840 1081 1760 1081 1680 1081C1600 1081 1520 1081 1440 1081C1360 1081 1280 1081 1200 1081C1120 1081 1040 1081 960 1081C880 1081 800 1081 720 1081C640 1081 560 1081 480 1081C400 1081 320 1081 240 1081C160 1081 80 1081 40 1081L0 1081Z" fill="#d73b67"></path><path d="M0 819L40 824.3C80 829.7 160 840.3 240 852.3C320 864.3 400 877.7 480 874.8C560 872 640 853 720 852.2C800 851.3 880 868.7 960 879.8C1040 891 1120 896 1200 894.5C1280 893 1360 885 1440 870C1520 855 1600 833 1680 839.3C1760 845.7 1840 880.3 1880 897.7L1920 915L1920 1081L1880 1081C1840 1081 1760 1081 1680 1081C1600 1081 1520 1081 1440 1081C1360 1081 1280 1081 1200 1081C1120 1081 1040 1081 960 1081C880 1081 800 1081 720 1081C640 1081 560 1081 480 1081C400 1081 320 1081 240 1081C160 1081 80 1081 40 1081L0 1081Z" fill="#cf3068"></path><path d="M0 980L40 981.8C80 983.7 160 987.3 240 981.7C320 976 400 961 480 948.8C560 936.7 640 927.3 720 935C800 942.7 880 967.3 960 976.2C1040 985 1120 978 1200 966.3C1280 954.7 1360 938.3 1440 933.8C1520 929.3 1600 936.7 1680 950.8C1760 965 1840 986 1880 996.5L1920 1007L1920 1081L1880 1081C1840 1081 1760 1081 1680 1081C1600 1081 1520 1081 1440 1081C1360 1081 1280 1081 1200 1081C1120 1081 1040 1081 960 1081C880 1081 800 1081 720 1081C640 1081 560 1081 480 1081C400 1081 320 1081 240 1081C160 1081 80 1081 40 1081L0 1081Z" fill="#c62368"></path></svg>